<svg width="32" height="32" viewBox="0 0 32 32" fill="none" xmlns="http://www.w3.org/2000/svg">
<path d="M26.6667 4H5.33333C3.86267 4 2.66667 5.196 2.66667 6.66667V25.3333C2.66667 26.804 3.86267 28 5.33333 28H26.6667C28.1373 28 29.3333 26.804 29.3333 25.3333V6.66667C29.3333 5.196 28.1373 4 26.6667 4ZM26.668 12C26.6667 12 26.6667 12 26.668 12H26.048L22.492 6.66667H26.6667L26.668 12ZM20.6667 20L13.3333 24V16L20.6667 20ZM19.3813 12L15.8253 6.66667H19.2867L22.8427 12H19.3813V12ZM16.176 12H12.7147L9.15867 6.66667H12.62L16.176 12ZM5.33333 6.66667H5.95333L9.50933 12H5.33333V6.66667Z" fill="#FF4500"/>
</svg>
